<svg width="100" height="100" viewBox="0 0 100 100" fill="none" xmlns="http://www.w3.org/2000/svg">
<circle cx="50" cy="50" r="50" fill="white"/>
<circle cx="50.5" cy="50.5" r="42.5" fill="#CAE7EE"/>
<circle cx="50" cy="50" r="35" fill="#0CAED4"/>
<path d="M56.5103 42.5L56.3627 42.2699L54.7246 39.715C54.6805 39.6462 54.6221 39.592 54.5562 39.5552C54.4904 39.5186 54.4182 39.5001 54.346 39.5C54.3459 39.5 54.3459 39.5 54.3458 39.5L54.3462 39L56.5103 42.5ZM56.5103 42.5H56.7837H60.1154C60.7414 42.5 61.3458 42.7584 61.7947 43.2252C62.2442 43.6927 62.5 44.3308 62.5 45V59C62.5 59.6692 62.2442 60.3073 61.7947 60.7748C61.3458 61.2416 60.7414 61.5 60.1154 61.5H40.8846C40.2586 61.5 39.6542 61.2416 39.2053 60.7748C38.7558 60.3073 38.5 59.6692 38.5 59V45C38.5 44.3308 38.7558 43.6927 39.2053 43.2252C39.6542 42.7584 40.2586 42.5 40.8846 42.5H44.2151H44.4884L44.636 42.27L46.2754 39.715L46.2754 39.715C46.3195 39.6462 46.3779 39.592 46.4438 39.5552C46.5097 39.5186 46.5818 39.5 46.6542 39.5L56.5103 42.5ZM54.5184 54.2703C55.0463 53.4487 55.3269 52.4846 55.3269 51.5C55.3269 50.1801 54.8229 48.9105 53.92 47.9715C53.0164 47.0317 51.7866 46.5 50.5 46.5C49.5409 46.5 48.605 46.7959 47.8108 47.3478C47.0168 47.8995 46.4009 48.6816 46.0379 49.5929C45.675 50.5041 45.5803 51.5057 45.7651 52.4718C45.9499 53.438 46.4065 54.3281 47.08 55.0285C47.7537 55.7292 48.6144 56.2087 49.5546 56.4032C50.4948 56.5977 51.4692 56.4977 52.3537 56.1167C53.2378 55.7358 53.9903 55.0922 54.5184 54.2703Z" stroke="white"/>
</svg>
