<svg width="50" height="50" viewBox="0 0 50 50" fill="none" xmlns="http://www.w3.org/2000/svg">
<path fill-rule="evenodd" clip-rule="evenodd" d="M35.88 42.563C35.556 43.003 35.404 43.096 34.999 43.664C34.325 44.534 35.184 45.855 35.612 45.647C36.111 45.46 36.435 44.464 36.98 44.139C37.259 43.989 38.001 42.899 38.696 42.158C39.207 41.577 39.578 41.322 40.064 40.72C40.887 39.699 41.061 38.923 41.78 37.833C42.221 37.265 42.535 37.091 42.94 36.395C45.085 32.337 44.458 30.518 46.511 27.62C47.136 26.763 47.843 26.554 48.84 26.044C49.768 19.284 46.695 15.505 46.719 15.493C44.133 17 42.742 17.615 40.064 17.475C39.056 17.464 38.522 17.035 37.526 17.127C36.597 17.162 36.124 17.509 35.195 17.823C33.77 18.263 32.993 18.657 31.498 19.121C30.547 19.388 29.944 19.399 28.958 19.735C28.112 20.095 28.518 19.805 27.927 20.489C27.161 21.336 27.347 21.996 26.628 23.446C25.735 25.347 25.84 25.602 26.35 25.834C26.014 26.807 25.933 27.457 26.014 28.512C26.107 29.312 25.77 29.868 26.628 30.506C27.799 31.375 30.257 33.416 30.883 33.45C31.822 33.416 34.558 33.52 35.948 32.557C36.261 32.361 36.354 32.162 36.088 32.905C36.03 32.999 32.621 35.653 32.251 35.641C27.915 35.781 29.364 36.024 29.098 35.92C28.877 35.92 26.79 33.368 25.527 34.273C25.051 34.563 24.831 34.841 24.646 35.364C24.808 35.7 25.573 36.232 26.281 36.674C27.302 37.323 27.394 38.007 28.414 38.25C29.655 38.529 30.976 38.343 31.765 38.448C32.067 38.529 34.802 37.728 36.506 36.813C38.084 36.001 34.339 38.377 33.423 39.548C30.663 40.417 31.441 40.452 30.13 40.719C28.913 40.997 28.971 40.927 28.136 41.195C27.279 41.403 26.572 42.575 27.383 43.189C27.87 43.594 29.389 43.026 30.884 42.981C31.545 42.969 34.245 41.728 34.861 41.403C36.391 40.581 37.516 39.444 38.421 38.795C39.67 37.926 37.004 41.195 35.88 42.563ZM27.521 25.903C28.437 26.633 28.901 28.813 28.889 28.79C30.57 29.323 31.636 30.436 31.636 30.436C34.222 28.998 34.281 29.647 35.405 28.79C36.333 28.152 36.287 27.955 36.773 26.252C37.225 24.871 35.625 24.999 34.303 22.483C32.008 23.352 30.768 22.959 29.991 22.889C29.643 22.843 29.7 24.245 27.521 25.903ZM14.084 8.01501C14.409 7.55101 14.559 7.45801 14.977 6.91301C15.626 6.02001 14.78 4.69901 14.362 4.86101C13.852 5.09301 13.528 6.09001 12.913 6.43801C12.692 6.56501 11.951 7.65501 11.267 8.42101C10.757 8.97801 10.386 9.23301 9.89902 9.87001C9.06502 10.855 8.90202 11.632 8.18302 12.676C7.74302 13.301 7.41802 13.464 7.02302 14.183C4.87902 18.218 5.49302 20.037 3.45202 22.89C2.82702 23.806 2.11902 24.003 1.12202 24.536C0.195017 31.284 3.25602 35.052 3.24402 35.029C5.82902 33.555 7.20902 32.941 9.89902 33.034C10.907 33.093 11.441 33.521 12.438 33.451C13.366 33.393 13.841 33.046 14.768 32.767C16.194 32.292 16.971 31.898 18.397 31.457C19.417 31.167 20.02 31.155 21.005 30.772C21.852 30.46 21.446 30.75 22.037 30.087C22.79 29.218 22.617 28.558 23.266 27.144C24.228 25.206 24.124 24.953 23.614 24.744C23.939 23.747 24.031 23.109 23.95 22.066C23.846 21.254 24.194 20.686 23.336 20.084C22.165 19.179 19.707 17.139 19.093 17.127C18.142 17.139 15.406 17.034 14.015 17.95C13.702 18.193 13.609 18.39 13.876 17.683C13.934 17.556 17.343 14.901 17.713 14.866C22.049 14.773 20.6 14.53 20.867 14.658C21.087 14.635 23.174 17.185 24.438 16.304C24.901 15.992 25.133 15.713 25.331 15.215C25.157 14.856 24.392 14.321 23.685 13.916C22.665 13.233 22.561 12.549 21.552 12.328C20.311 12.027 18.978 12.212 18.201 12.061C17.9 12.026 15.163 12.827 13.471 13.707C11.871 14.554 15.628 12.177 16.554 10.96C19.302 10.136 18.514 10.102 19.847 9.80001C21.053 9.55601 20.995 9.62601 21.83 9.38301C22.676 9.15101 23.394 7.99101 22.583 7.33101C22.085 6.96001 20.578 7.52801 19.094 7.53901C18.422 7.58501 15.72 8.82601 15.106 9.17401C13.576 9.97401 12.451 11.11 11.547 11.713C10.281 12.629 12.959 9.37101 14.084 8.01501ZM22.443 24.674C21.527 23.921 21.063 21.742 21.075 21.73C19.394 21.231 18.327 20.118 18.327 20.153C15.742 21.556 15.673 20.907 14.559 21.73C13.62 22.403 13.678 22.611 13.191 24.258C12.738 25.696 14.327 25.556 15.66 28.037C17.956 27.201 19.197 27.596 19.973 27.688C20.321 27.712 20.263 26.309 22.443 24.674Z" fill="#020202"/>
</svg>
